# xmcd
#
# Track frame offsets:
#	150
#	16376
#	31254
#	44469
#	61527
#	80072
#	97179
#	112567
#	133966
#	148795
#	166220
#	182373
#	198402
#	214853
#	228399
#	243711
#	260387
#	278444
#	292101
#
# Disc length: 4128 seconds
# Revision: 0
# Processed by: cddbd v1.5.2PL0 Copyright (c) Steve Scherf et al.
# Submitted via: dBpowerAMP V12.0
#
DISCID=0f101e13
DTITLE=Various Artist - Country Radio June 2006
DYEAR=2006
DGENRE=Country
TTITLE0=Rascal Flatts - Me and My Gang
TTITLE1=Toby Keith - A Little Too Late
TTITLE2=Gil Grand - Quit Teasin Me
TTITLE3=Josh Turner - Would You Go With Me
TTITLE4=Terri Clark - Slow News Day
TTITLE5=Miranda Lambert - New Strings
TTITLE6=Sara Evans - Coalmine
TTITLE7=Aaron Lines - Twenty Years Late
TTITLE8=Trace Adkins - Swing
TTITLE9=Rockie Lynne - Do We Still
TTITLE10=Gary Nichols - Unbroken Ground
TTITLE11=Sammy Kershaw - Tennessee Girl
TTITLE12=Shedaisy - In Terms Of Love
TTITLE13=Darryl Worley - Nothin But A Love Thang
TTITLE14=Julie Roberts - Men and Mascara
TTITLE15=Jeff Bates - One Second Chance
TTITLE16=Chris Cagle - Anywhere But Here
TTITLE17=Billy Dean - Swinging For The Fence
TTITLE18=Hot Apple Pie - Easy Does It
EXTD=
EXTT0=
EXTT1=
EXTT2=
EXTT3=
EXTT4=
EXTT5=
EXTT6=
EXTT7=
EXTT8=
EXTT9=
EXTT10=
EXTT11=
EXTT12=
EXTT13=
EXTT14=
EXTT15=
EXTT16=
EXTT17=
EXTT18=
PLAYORDER=
